<svg xmlns="http://www.w3.org/2000/svg" xmlns:xlink="http://www.w3.org/1999/xlink" width="40" zoomAndPan="magnify" viewBox="0 0 30 30.000001" height="40" preserveAspectRatio="xMidYMid meet" version="1.0"><defs><clipPath id="193a5b51e1"><path d="M 0.484375 0 L 29.515625 0 L 29.515625 29 L 0.484375 29 Z M 0.484375 0 " clip-rule="nonzero"/></clipPath></defs><g clip-path="url(#193a5b51e1)"><path fill="#ffffff" d="M 28.632812 21.804688 C 29.507812 22.679688 29.507812 24.097656 28.632812 24.976562 L 25.457031 28.148438 C 24.582031 29.023438 23.164062 29.023438 22.285156 28.148438 L 14.996094 20.859375 L 7.703125 28.148438 C 6.824219 29.023438 5.40625 29.023438 4.53125 28.148438 L 1.355469 24.976562 C 0.480469 24.097656 0.480469 22.679688 1.355469 21.804688 L 8.648438 14.511719 L 1.355469 7.21875 C 0.480469 6.34375 0.480469 4.921875 1.355469 4.046875 L 4.53125 0.875 C 5.40625 -0.00390625 6.824219 -0.00390625 7.703125 0.875 L 14.996094 8.167969 L 22.285156 0.875 C 23.164062 -0.00390625 24.582031 -0.00390625 25.457031 0.875 L 28.632812 4.046875 C 29.507812 4.921875 29.507812 6.34375 28.632812 7.21875 L 21.335938 14.511719 Z M 28.632812 21.804688 " fill-opacity="1" fill-rule="nonzero"/></g></svg>