<svg xmlns="http://www.w3.org/2000/svg" xmlns:xlink="http://www.w3.org/1999/xlink" width="40" zoomAndPan="magnify" viewBox="0 0 30 30.000001" height="40" preserveAspectRatio="xMidYMid meet" version="1.0"><defs><clipPath id="cb5ff20be0"><path d="M 1.320312 0.835938 L 28.898438 0.835938 L 28.898438 28.414062 L 1.320312 28.414062 Z M 1.320312 0.835938 " clip-rule="nonzero"/></clipPath></defs><g clip-path="url(#cb5ff20be0)"><path fill="#51d289" d="M 15.109375 0.835938 C 7.503906 0.835938 1.320312 7.019531 1.320312 14.625 C 1.320312 22.230469 7.503906 28.414062 15.109375 28.414062 C 22.714844 28.414062 28.898438 22.230469 28.898438 14.625 C 28.898438 7.019531 22.714844 0.835938 15.109375 0.835938 Z M 22.859375 15.960938 L 16.445312 15.960938 L 16.445312 22.375 C 16.445312 23.105469 15.847656 23.707031 15.109375 23.707031 C 14.371094 23.707031 13.773438 23.105469 13.773438 22.375 L 13.773438 15.960938 L 7.359375 15.960938 C 6.628906 15.960938 6.023438 15.363281 6.023438 14.625 C 6.023438 13.886719 6.628906 13.289062 7.359375 13.289062 L 13.773438 13.289062 L 13.773438 6.875 C 13.773438 6.144531 14.371094 5.542969 15.109375 5.542969 C 15.847656 5.542969 16.445312 6.144531 16.445312 6.875 L 16.445312 13.289062 L 22.859375 13.289062 C 23.585938 13.289062 24.191406 13.886719 24.191406 14.625 C 24.191406 15.363281 23.585938 15.960938 22.859375 15.960938 Z M 22.859375 15.960938 " fill-opacity="1" fill-rule="nonzero"/></g></svg>