<svg xmlns="http://www.w3.org/2000/svg" xmlns:xlink="http://www.w3.org/1999/xlink" width="400" zoomAndPan="magnify" viewBox="0 0 300 149.999998" height="200" preserveAspectRatio="xMidYMid meet" version="1.0"><defs><clipPath id="d54ea5dbf0"><path d="M 59.296875 62.40625 L 70.277344 62.40625 L 70.277344 70.136719 L 59.296875 70.136719 Z M 59.296875 62.40625 " clip-rule="nonzero"/></clipPath><clipPath id="ea9a33bd84"><path d="M 35.535156 98.28125 L 42.648438 98.28125 L 42.648438 104.128906 L 35.535156 104.128906 Z M 35.535156 98.28125 " clip-rule="nonzero"/></clipPath></defs><rect x="-30" width="360" fill="#ffffff" y="-15" height="179.999997" fill-opacity="1"/><rect x="-30" width="360" fill="#ffffff" y="-15" height="179.999997" fill-opacity="1"/><rect x="-30" width="360" fill="#000000" y="-15" height="179.999997" fill-opacity="1"/><path fill="#ffffff" d="M 106.585938 62.097656 C 110.070312 62.097656 115.101562 61.066406 115.101562 58.550781 C 115.101562 57.519531 114.324219 56.808594 113.359375 56.808594 C 111.875 56.808594 110.714844 58.035156 106.652344 58.035156 C 103.6875 58.035156 96.398438 56.875 91.242188 56.875 C 82.984375 56.875 78.535156 61.453125 78.535156 66.097656 C 78.535156 70.417969 82.40625 74.285156 85.628906 74.285156 C 86.855469 74.285156 87.757812 73.511719 87.757812 72.542969 C 87.757812 71.835938 87.308594 71.0625 86.273438 70.480469 C 83.824219 69.128906 82.984375 67.773438 82.984375 65.96875 C 82.984375 63.324219 86.082031 60.9375 91.242188 60.9375 C 92.335938 60.9375 93.882812 61 95.5625 61.195312 C 95.109375 67.257812 94.65625 73.0625 94.207031 78.089844 C 92.53125 78.476562 90.789062 79.058594 88.917969 79.832031 C 87.886719 80.28125 87.5 81.058594 87.5 81.832031 C 87.5 82.796875 88.273438 83.570312 89.433594 83.570312 C 90.144531 83.570312 91.757812 82.925781 93.882812 82.347656 C 93.625 85.378906 93.367188 87.957031 93.175781 89.890625 C 92.660156 95.566406 90.789062 98.855469 87.628906 98.855469 C 85.695312 98.855469 83.824219 97.566406 82.726562 95.242188 C 82.210938 94.148438 81.566406 93.632812 80.601562 93.632812 C 79.632812 93.632812 78.730469 94.46875 78.730469 95.824219 C 78.730469 99.371094 82.726562 102.917969 87.5 102.917969 C 93.367188 102.917969 96.980469 98.917969 97.6875 90.214844 C 97.945312 87.375 98.140625 84.472656 98.398438 81.574219 C 98.71875 81.507812 99.105469 81.507812 99.496094 81.507812 C 102.074219 81.507812 104.71875 82.152344 105.75 82.152344 C 107.039062 82.152344 107.8125 81.25 107.8125 80.28125 C 107.8125 79.445312 107.234375 78.605469 105.941406 78.285156 C 103.75 77.769531 101.6875 77.574219 99.6875 77.574219 L 98.71875 77.574219 C 99.105469 72.222656 99.558594 66.871094 100.011719 61.582031 C 102.78125 61.839844 105.363281 62.097656 106.585938 62.097656 Z M 106.585938 62.097656 " fill-opacity="1" fill-rule="nonzero"/><path fill="#ffffff" d="M 117.675781 73.449219 C 119.09375 73.449219 120.1875 72.351562 120.1875 70.933594 C 120.1875 69.515625 119.09375 68.417969 117.675781 68.417969 C 116.253906 68.417969 115.160156 69.515625 115.160156 70.933594 C 115.160156 72.351562 116.253906 73.449219 117.675781 73.449219 Z M 119.671875 102.789062 C 123.605469 102.789062 126.960938 98.660156 130.570312 88.859375 C 130.699219 88.535156 130.765625 88.214844 130.765625 87.957031 C 130.765625 86.859375 129.992188 86.085938 129.152344 86.085938 C 128.507812 86.085938 127.863281 86.539062 127.476562 87.503906 C 124.316406 95.308594 122.316406 98.789062 120.1875 98.789062 C 118.640625 98.789062 117.289062 97.4375 117.289062 92.859375 C 117.289062 90.085938 117.609375 86.667969 118.707031 79.445312 C 118.964844 77.769531 117.867188 76.800781 116.769531 76.800781 C 115.738281 76.800781 114.707031 77.511719 114.386719 79.25 C 113.742188 82.863281 113.03125 89.117188 113.03125 92.46875 C 113.03125 100.015625 115.933594 102.789062 119.671875 102.789062 Z M 119.671875 102.789062 " fill-opacity="1" fill-rule="nonzero"/><path fill="#ffffff" d="M 154.234375 87.503906 C 150.945312 95.371094 149.269531 98.53125 147.59375 98.53125 C 146.625 98.53125 145.980469 97.886719 145.980469 96.339844 C 145.980469 92.210938 147.011719 85.894531 147.011719 82.863281 C 147.011719 79.316406 144.625 76.929688 141.078125 76.929688 C 137.726562 76.929688 134.566406 78.863281 132.117188 82.539062 C 132.246094 81.1875 132.375 79.960938 132.375 79.121094 C 132.375 77.703125 131.40625 76.996094 130.375 76.996094 C 129.34375 76.996094 128.246094 77.769531 128.117188 79.1875 C 127.667969 84.28125 126.957031 95.371094 126.957031 100.464844 C 126.957031 101.886719 127.988281 102.59375 129.019531 102.59375 C 130.117188 102.59375 131.210938 101.886719 131.210938 100.464844 C 131.210938 98.210938 131.277344 95.757812 131.40625 93.246094 C 132.246094 86.085938 136.566406 80.863281 140.046875 80.863281 C 141.789062 80.863281 142.753906 81.894531 142.753906 83.894531 C 142.753906 86.085938 141.722656 91.953125 141.722656 95.953125 C 141.722656 100.402344 143.851562 102.53125 146.945312 102.53125 C 150.621094 102.53125 153.136719 99.433594 157.328125 88.859375 C 157.457031 88.535156 157.523438 88.214844 157.523438 87.957031 C 157.523438 86.925781 156.75 86.214844 155.910156 86.214844 C 155.265625 86.214844 154.621094 86.601562 154.234375 87.503906 Z M 154.234375 87.503906 " fill-opacity="1" fill-rule="nonzero"/><path fill="#51d289" d="M 172.347656 56.746094 C 160.996094 56.746094 153.644531 63.773438 153.644531 72.671875 C 153.644531 74.480469 154.550781 75.769531 155.773438 75.769531 C 157.0625 75.769531 157.964844 74.542969 157.964844 72.671875 C 157.964844 65.773438 163.191406 60.808594 172.347656 60.808594 C 180.019531 60.808594 185.050781 65.515625 185.050781 72.933594 C 185.050781 80.539062 180.277344 85.570312 173.441406 85.570312 C 171.636719 85.570312 169.636719 85.25 168.027344 84.730469 C 168.414062 81.507812 168.734375 78.15625 168.734375 74.671875 C 168.734375 71.320312 168.089844 66.226562 165.382812 66.226562 C 164.222656 66.226562 163.320312 67.128906 163.320312 68.417969 C 163.320312 69.515625 164.222656 71.0625 164.222656 74.671875 C 164.222656 83.894531 161.382812 94.277344 161.382812 100.660156 C 161.382812 102.078125 162.289062 102.980469 163.578125 102.980469 C 164.929688 102.980469 165.898438 102.015625 165.898438 100.597656 C 165.898438 97.5 166.671875 93.375 167.445312 88.601562 C 169.316406 89.246094 171.445312 89.632812 173.699219 89.632812 C 182.40625 89.632812 189.5625 82.476562 189.5625 72.933594 C 189.5625 63.257812 182.664062 56.746094 172.347656 56.746094 Z M 172.347656 56.746094 " fill-opacity="1" fill-rule="nonzero"/><path fill="#51d289" d="M 209.742188 87.503906 C 208.261719 91.4375 204.648438 98.46875 201.230469 98.46875 C 198.714844 98.46875 196.589844 95.179688 196.136719 88.730469 C 204.84375 79.378906 208.261719 71.382812 208.261719 64.226562 C 208.261719 59.777344 206.003906 57.199219 202.777344 57.199219 C 195.492188 57.199219 191.753906 67.128906 191.753906 85.828125 C 191.753906 97.113281 195.6875 102.464844 201.230469 102.464844 C 205.230469 102.464844 209.035156 98.660156 212.839844 88.859375 C 212.96875 88.535156 213.03125 88.214844 213.03125 87.957031 C 213.03125 86.859375 212.257812 86.085938 211.417969 86.085938 C 210.773438 86.085938 210.128906 86.539062 209.742188 87.503906 Z M 202.199219 61.195312 C 203.292969 61.195312 204.003906 62.035156 204.003906 64.226562 C 204.003906 69.964844 201.167969 76.605469 196.007812 83.183594 C 196.332031 70.417969 198.84375 61.195312 202.199219 61.195312 Z M 202.199219 61.195312 " fill-opacity="1" fill-rule="nonzero"/><path fill="#51d289" d="M 239.402344 87.503906 C 236.308594 95.179688 234.246094 98.789062 232.566406 98.789062 C 231.214844 98.789062 230.183594 97.695312 230.183594 93.953125 C 230.183594 87.632812 231.085938 80.089844 231.085938 78.734375 C 231.085938 77.382812 230.183594 76.542969 229.085938 76.542969 C 227.988281 76.542969 227.152344 77.382812 226.699219 78.671875 C 225.023438 77.445312 222.960938 76.867188 221.28125 76.867188 C 215.222656 76.867188 209.160156 82.992188 209.160156 91.953125 C 209.160156 98.855469 213.027344 102.789062 217.996094 102.789062 C 220.894531 102.789062 223.796875 101.433594 226.378906 97.5 C 227.34375 101.046875 229.410156 102.789062 232.308594 102.789062 C 236.050781 102.789062 238.953125 98.53125 242.5 88.859375 C 242.628906 88.535156 242.691406 88.214844 242.691406 87.957031 C 242.691406 86.925781 241.917969 86.214844 241.078125 86.214844 C 240.433594 86.214844 239.789062 86.601562 239.402344 87.503906 Z M 218.640625 98.789062 C 215.609375 98.789062 213.414062 96.597656 213.414062 91.761719 C 213.414062 85.054688 217.738281 80.667969 222.058594 80.667969 C 223.925781 80.667969 225.796875 81.703125 226.378906 82.605469 C 226.507812 92.730469 223.152344 98.789062 218.640625 98.789062 Z M 218.640625 98.789062 " fill-opacity="1" fill-rule="nonzero"/><path fill="#51d289" d="M 266.160156 87.503906 C 262.871094 95.371094 261.195312 98.53125 259.519531 98.53125 C 258.550781 98.53125 257.90625 97.886719 257.90625 96.339844 C 257.90625 92.210938 258.9375 85.894531 258.9375 82.863281 C 258.9375 79.316406 256.550781 76.929688 253.003906 76.929688 C 249.652344 76.929688 246.492188 78.863281 244.042969 82.539062 C 244.171875 81.1875 244.300781 79.960938 244.300781 79.121094 C 244.300781 77.703125 243.332031 76.996094 242.300781 76.996094 C 241.269531 76.996094 240.171875 77.769531 240.042969 79.1875 C 239.59375 84.28125 238.882812 95.371094 238.882812 100.464844 C 238.882812 101.886719 239.914062 102.59375 240.945312 102.59375 C 242.042969 102.59375 243.136719 101.886719 243.136719 100.464844 C 243.136719 98.210938 243.207031 95.757812 243.332031 93.246094 C 244.171875 86.085938 248.492188 80.863281 251.972656 80.863281 C 253.714844 80.863281 254.683594 81.894531 254.683594 83.894531 C 254.683594 86.085938 253.652344 91.953125 253.652344 95.953125 C 253.652344 100.402344 255.777344 102.53125 258.871094 102.53125 C 262.550781 102.53125 265.066406 99.433594 269.257812 88.859375 C 269.386719 88.535156 269.449219 88.214844 269.449219 87.957031 C 269.449219 86.925781 268.675781 86.214844 267.839844 86.214844 C 267.195312 86.214844 266.546875 86.601562 266.160156 87.503906 Z M 266.160156 87.503906 " fill-opacity="1" fill-rule="nonzero"/><path fill="#51d289" d="M 292.917969 87.503906 C 289.628906 95.371094 287.953125 98.53125 286.277344 98.53125 C 285.308594 98.53125 284.664062 97.886719 284.664062 96.339844 C 284.664062 92.210938 285.695312 85.894531 285.695312 82.863281 C 285.695312 79.316406 283.3125 76.929688 279.765625 76.929688 C 276.410156 76.929688 273.25 78.863281 270.800781 82.539062 C 270.929688 81.1875 271.058594 79.960938 271.058594 79.121094 C 271.058594 77.703125 270.09375 76.996094 269.058594 76.996094 C 268.027344 76.996094 266.933594 77.769531 266.804688 79.1875 C 266.351562 84.28125 265.640625 95.371094 265.640625 100.464844 C 265.640625 101.886719 266.675781 102.59375 267.707031 102.59375 C 268.800781 102.59375 269.898438 101.886719 269.898438 100.464844 C 269.898438 98.210938 269.964844 95.757812 270.09375 93.246094 C 270.929688 86.085938 275.25 80.863281 278.734375 80.863281 C 280.472656 80.863281 281.441406 81.894531 281.441406 83.894531 C 281.441406 86.085938 280.410156 91.953125 280.410156 95.953125 C 280.410156 100.402344 282.539062 102.53125 285.632812 102.53125 C 289.308594 102.53125 291.824219 99.433594 296.015625 88.859375 C 296.144531 88.535156 296.207031 88.214844 296.207031 87.957031 C 296.207031 86.925781 295.433594 86.214844 294.597656 86.214844 C 293.953125 86.214844 293.304688 86.601562 292.917969 87.503906 Z M 292.917969 87.503906 " fill-opacity="1" fill-rule="nonzero"/><path fill="#ffffff" d="M 27.632812 91.519531 C 28.496094 91.617188 29.15625 91.976562 29.941406 92.257812 C 30.722656 92.542969 31.609375 92.796875 32.851562 92.800781 C 32.945312 92.800781 33.039062 92.800781 33.140625 92.796875 C 34 92.777344 35.085938 92.265625 35.914062 91.386719 C 36.746094 90.515625 37.316406 89.324219 37.316406 88.003906 C 37.316406 87.238281 37.128906 86.417969 36.664062 85.546875 C 36.253906 84.773438 35.625 84.144531 34.84375 83.632812 C 34.066406 83.121094 33.148438 82.734375 32.21875 82.449219 C 30.632812 81.964844 28.976562 81.886719 27.996094 81.824219 C 27.308594 81.855469 26.210938 81.855469 24.960938 82.113281 C 23.597656 82.394531 22.109375 82.882812 20.945312 83.648438 C 20.167969 84.160156 19.535156 84.789062 19.125 85.5625 C 18.703125 86.359375 18.535156 87.078125 18.535156 87.730469 C 18.535156 88.988281 19.160156 90.089844 20.09375 90.917969 C 21.015625 91.746094 22.238281 92.238281 23.171875 92.257812 C 23.34375 92.265625 23.507812 92.269531 23.660156 92.269531 C 24.527344 92.265625 25.050781 92.183594 25.441406 92.085938 C 25.828125 91.988281 26.101562 91.863281 26.507812 91.726562 C 26.773438 91.636719 27.09375 91.554688 27.464844 91.519531 L 27.550781 91.511719 Z M 29.332031 93.902344 C 28.519531 93.59375 27.925781 93.332031 27.550781 93.273438 C 27.367188 93.300781 27.226562 93.335938 27.0625 93.390625 C 26.871094 93.453125 26.652344 93.542969 26.359375 93.640625 C 25.769531 93.84375 24.957031 94.023438 23.660156 94.019531 C 23.488281 94.019531 23.304688 94.019531 23.113281 94.011719 C 21.667969 93.957031 20.152344 93.304688 18.925781 92.230469 C 17.710938 91.15625 16.78125 89.59375 16.777344 87.730469 C 16.777344 86.773438 17.03125 85.757812 17.574219 84.738281 C 18.152344 83.652344 19.015625 82.820312 19.980469 82.1875 C 20.941406 81.550781 22.011719 81.109375 23.058594 80.789062 C 24.410156 80.378906 25.730469 80.171875 26.753906 80.066406 C 26.753906 80.066406 28.722656 79.992188 28.808594 80.027344 C 29.484375 80.09375 30.304688 80.199219 31.1875 80.382812 C 32.683594 80.695312 34.363281 81.222656 35.8125 82.171875 C 36.773438 82.804688 37.636719 83.636719 38.21875 84.722656 L 37.441406 85.132812 L 38.21875 84.722656 C 38.808594 85.828125 39.074219 86.949219 39.074219 88.003906 C 39.070312 89.835938 38.289062 91.441406 37.1875 92.597656 C 36.082031 93.746094 34.652344 94.492188 33.195312 94.546875 C 33.078125 94.550781 32.964844 94.554688 32.851562 94.554688 C 32.847656 94.554688 32.84375 94.554688 32.835938 94.554688 C 31.351562 94.554688 30.207031 94.226562 29.332031 93.902344 " fill-opacity="1" fill-rule="nonzero"/><path fill="#ffffff" d="M 21.679688 85.109375 C 21.679688 85.109375 19.660156 86.71875 20.820312 88.699219 C 21.976562 90.683594 24.820312 88.96875 23.136719 87.222656 C 21.453125 85.476562 21.679688 85.109375 21.679688 85.109375 " fill-opacity="1" fill-rule="nonzero"/><path fill="#ffffff" d="M 33.4375 85.710938 C 33.4375 85.710938 35.457031 87.320312 34.296875 89.300781 C 33.136719 91.285156 30.296875 89.570312 31.980469 87.824219 C 33.660156 86.078125 33.4375 85.710938 33.4375 85.710938 " fill-opacity="1" fill-rule="nonzero"/><path fill="#ffffff" d="M 26.3125 61.113281 C 26.3125 61.113281 27.136719 57.527344 34.160156 58.023438 C 41.183594 58.515625 42.652344 57.472656 45.039062 54.3125 C 47.757812 50.714844 51.375 47.019531 55.503906 45.042969 C 55.503906 45.042969 55.917969 48.132812 59.085938 53.449219 C 62.25 58.765625 62.390625 68.902344 55.367188 69.027344 C 55.367188 69.027344 58.121094 73.972656 57.019531 78.300781 C 57.019531 78.300781 56.054688 71.625 51.785156 68.285156 C 51.785156 68.285156 42.835938 61.238281 52.335938 53.695312 C 52.335938 53.695312 48.757812 58.515625 49.859375 61.609375 C 50.960938 64.699219 53.628906 66.339844 56.191406 65.441406 C 59.359375 64.328125 59.636719 60.125 58.535156 56.292969 C 57.867188 53.980469 54.902344 50.824219 54.351562 47.117188 C 54.351562 47.117188 49.648438 50.8125 46.757812 55.507812 C 43.691406 60.492188 42.296875 60.425781 35.824219 59.929688 C 29.351562 59.4375 27.273438 59.507812 26.3125 61.113281 " fill-opacity="1" fill-rule="nonzero"/><path fill="#ffffff" d="M 36.140625 92.503906 C 36.140625 92.503906 42.933594 92.089844 46.238281 83.683594 C 46.238281 83.683594 43.851562 88.132812 38.160156 90.441406 L 36.140625 92.503906 " fill-opacity="1" fill-rule="nonzero"/><g clip-path="url(#d54ea5dbf0)"><path fill="#ffffff" d="M 60.027344 62.476562 C 60.027344 62.476562 65.6875 64.8125 70.277344 70.085938 C 70.277344 70.085938 64.679688 65.71875 59.355469 64.894531 L 60.027344 62.476562 " fill-opacity="1" fill-rule="nonzero"/></g><g clip-path="url(#ea9a33bd84)"><path fill="#ffffff" d="M 37.960938 98.441406 C 37.960938 98.441406 38.597656 101.878906 42.644531 104.128906 C 42.644531 104.128906 38.871094 103.65625 35.65625 98.296875 L 37.960938 98.441406 " fill-opacity="1" fill-rule="nonzero"/></g><path fill="#ffffff" d="M 22.730469 52.582031 C 17.796875 50.488281 11.714844 49.738281 10.335938 48.625 C 10.335938 48.625 10.472656 50.234375 10.199219 54.933594 C 9.925781 59.617188 9.785156 70.421875 20.738281 70.199219 C 16.277344 78.949219 19.140625 84.234375 19.140625 84.234375 L 21.1875 83.210938 C 19.515625 79.914062 20.230469 74.605469 21.519531 71.480469 C 21.84375 70.851562 22.476562 69.625 22.699219 69.222656 C 22.976562 68.726562 23.324219 68.058594 23.523438 67.269531 C 24.867188 62.871094 24.300781 58.933594 16.808594 55.675781 C 16.808594 55.675781 20.664062 58.269531 21.628906 61.359375 C 22.59375 64.453125 21.492188 65.9375 20.527344 67.046875 C 19.5625 68.160156 9.53125 69.070312 12.121094 50.863281 C 12.121094 50.863281 14.898438 51.730469 17.710938 52.4375 C 21.886719 53.484375 26.625 56.636719 27.726562 59.480469 L 30.027344 58.394531 C 30.027344 58.394531 26.753906 54.289062 22.730469 52.582031 " fill-opacity="1" fill-rule="nonzero"/><path fill="#ffffff" d="M 42.8125 73.339844 C 42.8125 74.28125 42.046875 75.046875 41.097656 75.046875 C 40.152344 75.046875 39.386719 74.28125 39.386719 73.339844 C 39.386719 72.394531 40.152344 71.628906 41.097656 71.628906 C 42.046875 71.628906 42.8125 72.394531 42.8125 73.339844 " fill-opacity="1" fill-rule="nonzero"/><path fill="#ffffff" d="M 24.367188 72.125 C 24.367188 72.867188 23.949219 73.464844 23.429688 73.464844 C 22.90625 73.464844 22.488281 72.867188 22.488281 72.125 C 22.488281 71.386719 22.90625 70.785156 23.429688 70.785156 C 23.949219 70.785156 24.367188 71.386719 24.367188 72.125 " fill-opacity="1" fill-rule="nonzero"/><path fill="#ffffff" d="M 38.699219 70.871094 C 38.699219 70.871094 39.421875 69.828125 41.328125 69.84375 C 43.410156 69.863281 44.410156 71.554688 44.449219 72.160156 C 44.449219 72.160156 44.515625 70.488281 43.15625 69.550781 C 41.671875 68.523438 39.273438 69.320312 38.699219 70.871094 " fill-opacity="1" fill-rule="nonzero"/><path fill="#ffffff" d="M 21.535156 70.109375 C 21.535156 70.109375 22.003906 69.148438 23.234375 69.164062 C 24.582031 69.179688 25.226562 70.742188 25.25 71.300781 C 25.25 71.300781 25.292969 69.757812 24.414062 68.890625 C 23.457031 67.945312 21.90625 68.679688 21.535156 70.109375 " fill-opacity="1" fill-rule="nonzero"/><path fill="#ffffff" d="M 26.082031 92.617188 L 23.335938 92.941406 C 24.753906 94.75 33.863281 104.964844 51.089844 93.496094 C 51.089844 93.496094 35.371094 103.105469 26.082031 92.617188 " fill-opacity="1" fill-rule="nonzero"/><path fill="#ffffff" d="M 24.28125 79.042969 C 24.28125 79.042969 29.027344 78.035156 33.980469 79.953125 C 33.980469 79.953125 30.542969 76.625 24.28125 79.042969 " fill-opacity="1" fill-rule="nonzero"/><path fill="#ffffff" d="M 25.929688 77.0625 C 25.929688 77.0625 30.679688 76.054688 35.628906 77.96875 C 35.628906 77.96875 32.195312 74.644531 25.929688 77.0625 " fill-opacity="1" fill-rule="nonzero"/></svg>