<svg xmlns="http://www.w3.org/2000/svg" xmlns:xlink="http://www.w3.org/1999/xlink" width="800" zoomAndPan="magnify" viewBox="0 0 600 299.999988" height="400" preserveAspectRatio="xMidYMid meet" version="1.0"><defs><g/><clipPath id="7e8b7efee0"><path d="M 118.589844 124.8125 L 140.554688 124.8125 L 140.554688 140.277344 L 118.589844 140.277344 Z M 118.589844 124.8125 " clip-rule="nonzero"/></clipPath><clipPath id="ff1e3af2c5"><path d="M 71.066406 196.558594 L 85.296875 196.558594 L 85.296875 208.257812 L 71.066406 208.257812 Z M 71.066406 196.558594 " clip-rule="nonzero"/></clipPath></defs><g fill="#ffffff" fill-opacity="1"><g transform="translate(146.883473, 205.061306)"><g><path d="M 66.289062 -80.863281 C 73.253906 -80.863281 83.316406 -82.925781 83.316406 -87.957031 C 83.316406 -90.019531 81.765625 -91.441406 79.832031 -91.441406 C 76.867188 -91.441406 74.542969 -88.988281 66.417969 -88.988281 C 60.488281 -88.988281 45.914062 -91.3125 35.597656 -91.3125 C 19.085938 -91.3125 10.1875 -82.152344 10.1875 -72.867188 C 10.1875 -64.226562 17.925781 -56.488281 24.375 -56.488281 C 26.824219 -56.488281 28.632812 -58.035156 28.632812 -59.972656 C 28.632812 -61.390625 27.730469 -62.9375 25.664062 -64.097656 C 20.765625 -66.804688 19.085938 -69.515625 19.085938 -73.125 C 19.085938 -78.414062 25.277344 -83.1875 35.597656 -83.1875 C 37.789062 -83.1875 40.882812 -83.058594 44.238281 -82.667969 C 43.332031 -70.546875 42.429688 -58.9375 41.527344 -48.878906 C 38.175781 -48.105469 34.691406 -46.945312 30.953125 -45.398438 C 28.890625 -44.496094 28.117188 -42.945312 28.117188 -41.398438 C 28.117188 -39.464844 29.664062 -37.917969 31.984375 -37.917969 C 33.402344 -37.917969 36.628906 -39.207031 40.882812 -40.367188 C 40.367188 -34.304688 39.851562 -29.148438 39.464844 -25.277344 C 38.433594 -13.929688 34.691406 -7.351562 28.375 -7.351562 C 24.503906 -7.351562 20.765625 -9.929688 18.570312 -14.574219 C 17.539062 -16.765625 16.25 -17.796875 14.316406 -17.796875 C 12.382812 -17.796875 10.574219 -16.121094 10.574219 -13.414062 C 10.574219 -6.320312 18.570312 0.773438 28.117188 0.773438 C 39.851562 0.773438 47.074219 -7.222656 48.492188 -24.632812 C 49.007812 -30.308594 49.394531 -36.113281 49.910156 -41.914062 C 50.554688 -42.042969 51.328125 -42.042969 52.105469 -42.042969 C 57.261719 -42.042969 62.550781 -40.753906 64.613281 -40.753906 C 67.195312 -40.753906 68.742188 -42.558594 68.742188 -44.496094 C 68.742188 -46.171875 67.582031 -47.847656 65 -48.492188 C 60.617188 -49.523438 56.488281 -49.910156 52.492188 -49.910156 L 50.554688 -49.910156 C 51.328125 -60.617188 52.234375 -71.320312 53.136719 -81.894531 C 58.679688 -81.378906 63.839844 -80.863281 66.289062 -80.863281 Z M 66.289062 -80.863281 "/></g></g></g><g fill="#ffffff" fill-opacity="1"><g transform="translate(222.321227, 205.061306)"><g><path d="M 13.027344 -58.164062 C 15.863281 -58.164062 18.054688 -60.359375 18.054688 -63.195312 C 18.054688 -66.03125 15.863281 -68.226562 13.027344 -68.226562 C 10.1875 -68.226562 7.996094 -66.03125 7.996094 -63.195312 C 7.996094 -60.359375 10.1875 -58.164062 13.027344 -58.164062 Z M 17.023438 0.515625 C 24.890625 0.515625 31.597656 -7.738281 38.820312 -27.339844 C 39.078125 -27.988281 39.207031 -28.632812 39.207031 -29.148438 C 39.207031 -31.339844 37.660156 -32.886719 35.984375 -32.886719 C 34.691406 -32.886719 33.402344 -31.984375 32.628906 -30.050781 C 26.308594 -14.445312 22.3125 -7.480469 18.054688 -7.480469 C 14.960938 -7.480469 12.253906 -10.1875 12.253906 -19.34375 C 12.253906 -24.890625 12.898438 -31.726562 15.089844 -46.171875 C 15.605469 -49.523438 13.414062 -51.460938 11.21875 -51.460938 C 9.15625 -51.460938 7.09375 -50.039062 6.449219 -46.558594 C 5.160156 -39.335938 3.738281 -26.824219 3.738281 -20.121094 C 3.738281 -5.03125 9.542969 0.515625 17.023438 0.515625 Z M 17.023438 0.515625 "/></g></g></g><g fill="#ffffff" fill-opacity="1"><g transform="translate(250.69099, 205.061306)"><g><path d="M 57.777344 -30.050781 C 51.199219 -14.316406 47.847656 -7.996094 44.496094 -7.996094 C 42.558594 -7.996094 41.269531 -9.285156 41.269531 -12.382812 C 41.269531 -20.636719 43.332031 -33.273438 43.332031 -39.335938 C 43.332031 -46.429688 38.5625 -51.199219 31.46875 -51.199219 C 24.761719 -51.199219 18.441406 -47.332031 13.542969 -39.980469 C 13.800781 -42.6875 14.058594 -45.140625 14.058594 -46.816406 C 14.058594 -49.652344 12.125 -51.070312 10.058594 -51.070312 C 7.996094 -51.070312 5.804688 -49.523438 5.546875 -46.6875 C 4.644531 -36.5 3.222656 -14.316406 3.222656 -4.128906 C 3.222656 -1.289062 5.289062 0.128906 7.351562 0.128906 C 9.542969 0.128906 11.734375 -1.289062 11.734375 -4.128906 C 11.734375 -8.640625 11.867188 -13.542969 12.125 -18.570312 C 13.800781 -32.886719 22.441406 -43.332031 29.40625 -43.332031 C 32.886719 -43.332031 34.820312 -41.269531 34.820312 -37.273438 C 34.820312 -32.886719 32.757812 -21.152344 32.757812 -13.15625 C 32.757812 -4.257812 37.015625 0 43.203125 0 C 50.554688 0 55.585938 -6.191406 63.96875 -27.339844 C 64.226562 -27.988281 64.355469 -28.632812 64.355469 -29.148438 C 64.355469 -31.210938 62.808594 -32.628906 61.132812 -32.628906 C 59.84375 -32.628906 58.550781 -31.855469 57.777344 -30.050781 Z M 57.777344 -30.050781 "/></g></g></g><g fill="#51d289" fill-opacity="1"><g transform="translate(304.19596, 205.061306)"><g><path d="M 40.496094 -91.570312 C 17.796875 -91.570312 3.09375 -77.511719 3.09375 -59.714844 C 3.09375 -56.101562 4.902344 -53.523438 7.351562 -53.523438 C 9.929688 -53.523438 11.734375 -55.972656 11.734375 -59.714844 C 11.734375 -73.511719 22.183594 -83.445312 40.496094 -83.445312 C 55.84375 -83.445312 65.902344 -74.027344 65.902344 -59.195312 C 65.902344 -43.980469 56.359375 -33.917969 42.6875 -33.917969 C 39.078125 -33.917969 35.078125 -34.5625 31.855469 -35.597656 C 32.628906 -42.042969 33.273438 -48.75 33.273438 -55.714844 C 33.273438 -62.421875 31.984375 -72.609375 26.566406 -72.609375 C 24.246094 -72.609375 22.441406 -70.804688 22.441406 -68.226562 C 22.441406 -66.03125 24.246094 -62.9375 24.246094 -55.714844 C 24.246094 -37.273438 18.570312 -16.507812 18.570312 -3.738281 C 18.570312 -0.902344 20.378906 0.902344 22.957031 0.902344 C 25.664062 0.902344 27.597656 -1.03125 27.597656 -3.867188 C 27.597656 -10.058594 29.148438 -18.3125 30.695312 -27.859375 C 34.433594 -26.566406 38.691406 -25.792969 43.203125 -25.792969 C 60.617188 -25.792969 74.929688 -40.109375 74.929688 -59.195312 C 74.929688 -78.542969 61.132812 -91.570312 40.496094 -91.570312 Z M 40.496094 -91.570312 "/></g></g></g><g fill="#51d289" fill-opacity="1"><g transform="translate(379.504762, 205.061306)"><g><path d="M 39.980469 -30.050781 C 37.015625 -22.183594 29.792969 -8.125 22.957031 -8.125 C 17.925781 -8.125 13.671875 -14.703125 12.769531 -27.597656 C 30.179688 -46.300781 37.015625 -62.292969 37.015625 -76.609375 C 37.015625 -85.507812 32.5 -90.664062 26.050781 -90.664062 C 11.476562 -90.664062 4 -70.804688 4 -33.402344 C 4 -10.832031 11.867188 -0.128906 22.957031 -0.128906 C 30.953125 -0.128906 38.5625 -7.738281 46.171875 -27.339844 C 46.429688 -27.988281 46.558594 -28.632812 46.558594 -29.148438 C 46.558594 -31.339844 45.011719 -32.886719 43.332031 -32.886719 C 42.042969 -32.886719 40.753906 -31.984375 39.980469 -30.050781 Z M 24.890625 -82.667969 C 27.082031 -82.667969 28.503906 -80.992188 28.503906 -76.609375 C 28.503906 -65.128906 22.828125 -51.847656 12.511719 -38.691406 C 13.15625 -64.226562 18.183594 -82.667969 24.890625 -82.667969 Z M 24.890625 -82.667969 "/></g></g></g><g fill="#51d289" fill-opacity="1"><g transform="translate(415.224882, 205.061306)"><g><path d="M 63.582031 -30.050781 C 57.390625 -14.703125 53.265625 -7.480469 49.910156 -7.480469 C 47.203125 -7.480469 45.140625 -9.671875 45.140625 -17.152344 C 45.140625 -29.792969 46.945312 -44.882812 46.945312 -47.589844 C 46.945312 -50.296875 45.140625 -51.976562 42.945312 -51.976562 C 40.753906 -51.976562 39.078125 -50.296875 38.175781 -47.71875 C 34.820312 -50.167969 30.695312 -51.328125 27.339844 -51.328125 C 15.21875 -51.328125 3.09375 -39.078125 3.09375 -21.152344 C 3.09375 -7.351562 10.832031 0.515625 20.765625 0.515625 C 26.566406 0.515625 32.371094 -2.191406 37.53125 -10.058594 C 39.464844 -2.964844 43.59375 0.515625 49.394531 0.515625 C 56.875 0.515625 62.679688 -7.996094 69.773438 -27.339844 C 70.03125 -27.988281 70.160156 -28.632812 70.160156 -29.148438 C 70.160156 -31.210938 68.613281 -32.628906 66.933594 -32.628906 C 65.644531 -32.628906 64.355469 -31.855469 63.582031 -30.050781 Z M 22.054688 -7.480469 C 15.992188 -7.480469 11.605469 -11.867188 11.605469 -21.539062 C 11.605469 -34.949219 20.25 -43.722656 28.890625 -43.722656 C 32.628906 -43.722656 36.371094 -41.65625 37.53125 -39.851562 C 37.789062 -19.601562 31.082031 -7.480469 22.054688 -7.480469 Z M 22.054688 -7.480469 "/></g></g></g><g fill="#51d289" fill-opacity="1"><g transform="translate(474.543451, 205.061306)"><g><path d="M 57.777344 -30.050781 C 51.199219 -14.316406 47.847656 -7.996094 44.496094 -7.996094 C 42.558594 -7.996094 41.269531 -9.285156 41.269531 -12.382812 C 41.269531 -20.636719 43.332031 -33.273438 43.332031 -39.335938 C 43.332031 -46.429688 38.5625 -51.199219 31.46875 -51.199219 C 24.761719 -51.199219 18.441406 -47.332031 13.542969 -39.980469 C 13.800781 -42.6875 14.058594 -45.140625 14.058594 -46.816406 C 14.058594 -49.652344 12.125 -51.070312 10.058594 -51.070312 C 7.996094 -51.070312 5.804688 -49.523438 5.546875 -46.6875 C 4.644531 -36.5 3.222656 -14.316406 3.222656 -4.128906 C 3.222656 -1.289062 5.289062 0.128906 7.351562 0.128906 C 9.542969 0.128906 11.734375 -1.289062 11.734375 -4.128906 C 11.734375 -8.640625 11.867188 -13.542969 12.125 -18.570312 C 13.800781 -32.886719 22.441406 -43.332031 29.40625 -43.332031 C 32.886719 -43.332031 34.820312 -41.269531 34.820312 -37.273438 C 34.820312 -32.886719 32.757812 -21.152344 32.757812 -13.15625 C 32.757812 -4.257812 37.015625 0 43.203125 0 C 50.554688 0 55.585938 -6.191406 63.96875 -27.339844 C 64.226562 -27.988281 64.355469 -28.632812 64.355469 -29.148438 C 64.355469 -31.210938 62.808594 -32.628906 61.132812 -32.628906 C 59.84375 -32.628906 58.550781 -31.855469 57.777344 -30.050781 Z M 57.777344 -30.050781 "/></g></g></g><g fill="#51d289" fill-opacity="1"><g transform="translate(528.059133, 205.061306)"><g><path d="M 57.777344 -30.050781 C 51.199219 -14.316406 47.847656 -7.996094 44.496094 -7.996094 C 42.558594 -7.996094 41.269531 -9.285156 41.269531 -12.382812 C 41.269531 -20.636719 43.332031 -33.273438 43.332031 -39.335938 C 43.332031 -46.429688 38.5625 -51.199219 31.46875 -51.199219 C 24.761719 -51.199219 18.441406 -47.332031 13.542969 -39.980469 C 13.800781 -42.6875 14.058594 -45.140625 14.058594 -46.816406 C 14.058594 -49.652344 12.125 -51.070312 10.058594 -51.070312 C 7.996094 -51.070312 5.804688 -49.523438 5.546875 -46.6875 C 4.644531 -36.5 3.222656 -14.316406 3.222656 -4.128906 C 3.222656 -1.289062 5.289062 0.128906 7.351562 0.128906 C 9.542969 0.128906 11.734375 -1.289062 11.734375 -4.128906 C 11.734375 -8.640625 11.867188 -13.542969 12.125 -18.570312 C 13.800781 -32.886719 22.441406 -43.332031 29.40625 -43.332031 C 32.886719 -43.332031 34.820312 -41.269531 34.820312 -37.273438 C 34.820312 -32.886719 32.757812 -21.152344 32.757812 -13.15625 C 32.757812 -4.257812 37.015625 0 43.203125 0 C 50.554688 0 55.585938 -6.191406 63.96875 -27.339844 C 64.226562 -27.988281 64.355469 -28.632812 64.355469 -29.148438 C 64.355469 -31.210938 62.808594 -32.628906 61.132812 -32.628906 C 59.84375 -32.628906 58.550781 -31.855469 57.777344 -30.050781 Z M 57.777344 -30.050781 "/></g></g></g><path fill="#ffffff" d="M 55.265625 183.039062 C 56.988281 183.230469 58.3125 183.953125 59.878906 184.511719 C 61.441406 185.085938 63.21875 185.59375 65.699219 185.601562 C 65.886719 185.601562 66.078125 185.597656 66.277344 185.589844 C 68 185.550781 70.171875 184.527344 71.828125 182.773438 C 73.492188 181.027344 74.632812 178.648438 74.628906 176.007812 C 74.628906 174.476562 74.253906 172.832031 73.328125 171.089844 C 72.503906 169.542969 71.246094 168.289062 69.6875 167.265625 C 68.132812 166.242188 66.296875 165.464844 64.433594 164.898438 C 61.261719 163.929688 57.953125 163.769531 55.988281 163.648438 C 54.617188 163.710938 52.421875 163.707031 49.917969 164.226562 C 47.195312 164.789062 44.21875 165.761719 41.890625 167.296875 C 40.332031 168.320312 39.070312 169.574219 38.246094 171.121094 C 37.402344 172.714844 37.070312 174.152344 37.070312 175.460938 C 37.070312 177.976562 38.320312 180.175781 40.183594 181.835938 C 42.03125 183.488281 44.476562 184.472656 46.339844 184.515625 C 46.6875 184.527344 47.011719 184.535156 47.316406 184.535156 C 49.050781 184.53125 50.101562 184.367188 50.878906 184.171875 C 51.652344 183.976562 52.199219 183.726562 53.011719 183.453125 C 53.546875 183.273438 54.183594 183.109375 54.929688 183.039062 L 55.097656 183.023438 Z M 58.660156 187.800781 C 57.035156 187.183594 55.847656 186.660156 55.101562 186.546875 C 54.734375 186.597656 54.453125 186.671875 54.121094 186.78125 C 53.742188 186.902344 53.300781 187.085938 52.714844 187.28125 C 51.539062 187.683594 49.914062 188.046875 47.316406 188.039062 C 46.972656 188.039062 46.609375 188.035156 46.226562 188.019531 C 43.335938 187.914062 40.300781 186.609375 37.851562 184.457031 C 35.417969 182.308594 33.558594 179.183594 33.554688 175.460938 C 33.554688 173.546875 34.058594 171.511719 35.144531 169.476562 C 36.300781 167.300781 38.03125 165.636719 39.957031 164.371094 C 41.882812 163.101562 44.023438 162.214844 46.117188 161.578125 C 48.816406 160.757812 51.457031 160.34375 53.507812 160.132812 C 53.507812 160.132812 57.441406 159.980469 57.617188 160.054688 C 58.964844 160.183594 60.609375 160.398438 62.375 160.761719 C 65.367188 161.390625 68.726562 162.441406 71.621094 164.339844 C 73.546875 165.605469 75.273438 167.269531 76.433594 169.445312 L 74.878906 170.265625 L 76.433594 169.445312 C 77.613281 171.65625 78.144531 173.894531 78.144531 176.007812 C 78.140625 179.671875 76.574219 182.882812 74.375 185.191406 C 72.160156 187.492188 69.304688 188.984375 66.386719 189.09375 C 66.15625 189.101562 65.925781 189.105469 65.699219 189.105469 C 65.691406 189.105469 65.683594 189.105469 65.671875 189.105469 C 62.703125 189.105469 60.410156 188.449219 58.660156 187.800781 " fill-opacity="1" fill-rule="nonzero"/><path fill="#ffffff" d="M 43.355469 170.214844 C 43.355469 170.214844 39.316406 173.4375 41.636719 177.398438 C 43.953125 181.363281 49.636719 177.9375 46.273438 174.445312 C 42.90625 170.953125 43.355469 170.214844 43.355469 170.214844 " fill-opacity="1" fill-rule="nonzero"/><path fill="#ffffff" d="M 66.875 171.417969 C 66.875 171.417969 70.910156 174.640625 68.59375 178.601562 C 66.273438 182.566406 60.589844 179.140625 63.957031 175.648438 C 67.320312 172.15625 66.875 171.417969 66.875 171.417969 " fill-opacity="1" fill-rule="nonzero"/><path fill="#ffffff" d="M 52.621094 122.226562 C 52.621094 122.226562 54.273438 115.054688 68.316406 116.042969 C 82.363281 117.03125 85.300781 114.945312 90.074219 108.625 C 95.515625 101.425781 102.746094 94.039062 111.007812 90.082031 C 111.007812 90.082031 111.832031 96.261719 118.167969 106.894531 C 124.5 117.527344 124.777344 137.804688 110.730469 138.050781 C 110.730469 138.050781 116.238281 147.941406 114.035156 156.597656 C 114.035156 156.597656 112.109375 143.246094 103.570312 136.566406 C 103.570312 136.566406 85.667969 122.472656 104.671875 107.390625 C 104.671875 107.390625 97.511719 117.03125 99.714844 123.214844 C 101.917969 129.394531 107.253906 132.679688 112.382812 130.878906 C 118.71875 128.65625 119.269531 120.246094 117.066406 112.582031 C 115.734375 107.957031 109.804688 101.648438 108.703125 94.230469 C 108.703125 94.230469 99.296875 101.621094 93.511719 111.015625 C 87.378906 120.980469 84.589844 120.847656 71.644531 119.859375 C 58.703125 118.871094 54.546875 119.011719 52.621094 122.226562 " fill-opacity="1" fill-rule="nonzero"/><path fill="#ffffff" d="M 72.277344 185.003906 C 72.277344 185.003906 85.867188 184.179688 92.476562 167.367188 C 92.476562 167.367188 87.703125 176.265625 76.316406 180.882812 L 72.277344 185.003906 " fill-opacity="1" fill-rule="nonzero"/><g clip-path="url(#7e8b7efee0)"><path fill="#ffffff" d="M 120.054688 124.953125 C 120.054688 124.953125 131.375 129.621094 140.554688 140.171875 C 140.554688 140.171875 129.355469 131.433594 118.707031 129.785156 L 120.054688 124.953125 " fill-opacity="1" fill-rule="nonzero"/></g><g clip-path="url(#ff1e3af2c5)"><path fill="#ffffff" d="M 75.921875 196.882812 C 75.921875 196.882812 77.195312 203.753906 85.285156 208.257812 C 85.285156 208.257812 77.738281 207.308594 71.3125 196.59375 L 75.921875 196.882812 " fill-opacity="1" fill-rule="nonzero"/></g><path fill="#ffffff" d="M 45.457031 105.164062 C 35.589844 100.976562 23.425781 99.476562 20.671875 97.25 C 20.671875 97.25 20.945312 100.464844 20.394531 109.863281 C 19.847656 119.234375 19.566406 140.839844 41.472656 140.394531 C 32.554688 157.894531 38.277344 168.464844 38.277344 168.464844 L 42.371094 166.421875 C 39.03125 159.828125 40.460938 149.207031 43.035156 142.957031 C 43.683594 141.699219 44.949219 139.246094 45.398438 138.441406 C 45.949219 137.453125 46.644531 136.113281 47.046875 134.535156 C 49.734375 125.738281 48.601562 117.867188 33.613281 111.347656 C 33.613281 111.347656 41.328125 116.539062 43.253906 122.71875 C 45.183594 128.902344 42.980469 131.871094 41.050781 134.09375 C 39.125 136.320312 19.0625 138.140625 24.238281 101.722656 C 24.238281 101.722656 29.796875 103.457031 35.421875 104.871094 C 43.769531 106.96875 53.25 113.273438 55.453125 118.960938 L 60.054688 116.785156 C 60.054688 116.785156 53.503906 108.578125 45.457031 105.164062 " fill-opacity="1" fill-rule="nonzero"/><path fill="#ffffff" d="M 85.625 146.675781 C 85.625 148.5625 84.089844 150.09375 82.195312 150.09375 C 80.304688 150.09375 78.769531 148.5625 78.769531 146.675781 C 78.769531 144.789062 80.304688 143.257812 82.195312 143.257812 C 84.089844 143.257812 85.625 144.789062 85.625 146.675781 " fill-opacity="1" fill-rule="nonzero"/><path fill="#ffffff" d="M 48.734375 144.25 C 48.734375 145.730469 47.894531 146.929688 46.855469 146.929688 C 45.8125 146.929688 44.972656 145.730469 44.972656 144.25 C 44.972656 142.769531 45.8125 141.566406 46.855469 141.566406 C 47.894531 141.566406 48.734375 142.769531 48.734375 144.25 " fill-opacity="1" fill-rule="nonzero"/><path fill="#ffffff" d="M 77.398438 141.738281 C 77.398438 141.738281 78.84375 139.652344 82.652344 139.6875 C 86.820312 139.726562 88.820312 143.105469 88.898438 144.320312 C 88.898438 144.320312 89.027344 140.976562 86.308594 139.097656 C 83.339844 137.046875 78.542969 138.640625 77.398438 141.738281 " fill-opacity="1" fill-rule="nonzero"/><path fill="#ffffff" d="M 43.070312 140.21875 C 43.070312 140.21875 44.003906 138.292969 46.464844 138.324219 C 49.160156 138.359375 50.453125 141.480469 50.5 142.601562 C 50.5 142.601562 50.585938 139.515625 48.828125 137.78125 C 46.910156 135.886719 43.808594 137.359375 43.070312 140.21875 " fill-opacity="1" fill-rule="nonzero"/><path fill="#ffffff" d="M 52.164062 185.230469 L 46.667969 185.878906 C 49.503906 189.5 67.722656 209.929688 102.179688 186.992188 C 102.179688 186.992188 70.738281 206.207031 52.164062 185.230469 " fill-opacity="1" fill-rule="nonzero"/><path fill="#ffffff" d="M 48.558594 158.085938 C 48.558594 158.085938 58.054688 156.070312 67.957031 159.902344 C 67.957031 159.902344 61.085938 153.25 48.558594 158.085938 " fill-opacity="1" fill-rule="nonzero"/><path fill="#ffffff" d="M 51.859375 154.121094 C 51.859375 154.121094 61.355469 152.105469 71.257812 155.9375 C 71.257812 155.9375 64.386719 149.285156 51.859375 154.121094 " fill-opacity="1" fill-rule="nonzero"/></svg>