<svg xmlns="http://www.w3.org/2000/svg" xmlns:xlink="http://www.w3.org/1999/xlink" width="200" zoomAndPan="magnify" viewBox="0 0 150 74.999997" height="100" preserveAspectRatio="xMidYMid meet" version="1.0"><defs><g/><clipPath id="3c048ef420"><path d="M 13 22.5 L 31 22.5 L 31 40 L 13 40 Z M 13 22.5 " clip-rule="nonzero"/></clipPath><clipPath id="3b11623758"><path d="M 29.339844 31.203125 L 34.765625 31.203125 L 34.765625 35.070312 L 29.339844 35.070312 Z M 29.339844 31.203125 " clip-rule="nonzero"/></clipPath><clipPath id="2ccab9fa2e"><path d="M 17.605469 49.136719 L 21.121094 49.136719 L 21.121094 52.058594 L 17.605469 52.058594 Z M 17.605469 49.136719 " clip-rule="nonzero"/></clipPath></defs><g fill="#ffffff" fill-opacity="1"><g transform="translate(36.720868, 51.265326)"><g><path d="M 16.574219 -20.214844 C 18.3125 -20.214844 20.828125 -20.730469 20.828125 -21.988281 C 20.828125 -22.503906 20.441406 -22.859375 19.957031 -22.859375 C 19.214844 -22.859375 18.636719 -22.246094 16.605469 -22.246094 C 15.121094 -22.246094 11.476562 -22.828125 8.898438 -22.828125 C 4.773438 -22.828125 2.546875 -20.539062 2.546875 -18.21875 C 2.546875 -16.058594 4.480469 -14.121094 6.09375 -14.121094 C 6.707031 -14.121094 7.15625 -14.507812 7.15625 -14.992188 C 7.15625 -15.347656 6.933594 -15.734375 6.417969 -16.023438 C 5.191406 -16.703125 4.773438 -17.378906 4.773438 -18.28125 C 4.773438 -19.601562 6.320312 -20.796875 8.898438 -20.796875 C 9.445312 -20.796875 10.222656 -20.765625 11.058594 -20.667969 C 10.832031 -17.636719 10.609375 -14.734375 10.382812 -12.21875 C 9.542969 -12.027344 8.671875 -11.734375 7.738281 -11.347656 C 7.222656 -11.125 7.027344 -10.738281 7.027344 -10.351562 C 7.027344 -9.867188 7.414062 -9.480469 7.996094 -9.480469 C 8.351562 -9.480469 9.15625 -9.800781 10.222656 -10.09375 C 10.09375 -8.578125 9.964844 -7.285156 9.867188 -6.320312 C 9.609375 -3.480469 8.671875 -1.835938 7.09375 -1.835938 C 6.125 -1.835938 5.191406 -2.484375 4.644531 -3.644531 C 4.386719 -4.191406 4.0625 -4.449219 3.578125 -4.449219 C 3.09375 -4.449219 2.644531 -4.03125 2.644531 -3.351562 C 2.644531 -1.578125 4.644531 0.195312 7.027344 0.195312 C 9.964844 0.195312 11.769531 -1.804688 12.125 -6.160156 C 12.253906 -7.578125 12.347656 -9.027344 12.476562 -10.480469 C 12.640625 -10.511719 12.832031 -10.511719 13.027344 -10.511719 C 14.316406 -10.511719 15.636719 -10.1875 16.152344 -10.1875 C 16.796875 -10.1875 17.183594 -10.640625 17.183594 -11.125 C 17.183594 -11.542969 16.894531 -11.960938 16.25 -12.125 C 15.152344 -12.382812 14.121094 -12.476562 13.121094 -12.476562 L 12.640625 -12.476562 C 12.832031 -15.152344 13.058594 -17.832031 13.285156 -20.472656 C 14.671875 -20.34375 15.960938 -20.214844 16.574219 -20.214844 Z M 16.574219 -20.214844 "/></g></g></g><g fill="#ffffff" fill-opacity="1"><g transform="translate(55.580306, 51.265326)"><g><path d="M 3.257812 -14.542969 C 3.964844 -14.542969 4.515625 -15.089844 4.515625 -15.796875 C 4.515625 -16.507812 3.964844 -17.054688 3.257812 -17.054688 C 2.546875 -17.054688 2 -16.507812 2 -15.796875 C 2 -15.089844 2.546875 -14.542969 3.257812 -14.542969 Z M 4.257812 0.128906 C 6.222656 0.128906 7.898438 -1.933594 9.703125 -6.835938 C 9.769531 -6.996094 9.800781 -7.15625 9.800781 -7.285156 C 9.800781 -7.835938 9.414062 -8.222656 8.996094 -8.222656 C 8.671875 -8.222656 8.351562 -7.996094 8.15625 -7.511719 C 6.578125 -3.609375 5.578125 -1.871094 4.515625 -1.871094 C 3.738281 -1.871094 3.0625 -2.546875 3.0625 -4.835938 C 3.0625 -6.222656 3.222656 -7.933594 3.773438 -11.542969 C 3.902344 -12.382812 3.351562 -12.863281 2.804688 -12.863281 C 2.289062 -12.863281 1.773438 -12.511719 1.613281 -11.640625 C 1.289062 -9.832031 0.933594 -6.707031 0.933594 -5.03125 C 0.933594 -1.257812 2.386719 0.128906 4.257812 0.128906 Z M 4.257812 0.128906 "/></g></g></g><g fill="#ffffff" fill-opacity="1"><g transform="translate(62.672747, 51.265326)"><g><path d="M 14.445312 -7.511719 C 12.800781 -3.578125 11.960938 -2 11.125 -2 C 10.640625 -2 10.316406 -2.320312 10.316406 -3.09375 C 10.316406 -5.160156 10.832031 -8.320312 10.832031 -9.832031 C 10.832031 -11.605469 9.640625 -12.800781 7.867188 -12.800781 C 6.191406 -12.800781 4.609375 -11.832031 3.386719 -9.996094 C 3.449219 -10.671875 3.515625 -11.285156 3.515625 -11.703125 C 3.515625 -12.414062 3.03125 -12.769531 2.515625 -12.769531 C 2 -12.769531 1.449219 -12.382812 1.386719 -11.671875 C 1.160156 -9.125 0.804688 -3.578125 0.804688 -1.03125 C 0.804688 -0.324219 1.320312 0.03125 1.835938 0.03125 C 2.386719 0.03125 2.933594 -0.324219 2.933594 -1.03125 C 2.933594 -2.160156 2.964844 -3.386719 3.03125 -4.644531 C 3.449219 -8.222656 5.609375 -10.832031 7.351562 -10.832031 C 8.222656 -10.832031 8.707031 -10.316406 8.707031 -9.316406 C 8.707031 -8.222656 8.191406 -5.289062 8.191406 -3.289062 C 8.191406 -1.0625 9.253906 0 10.800781 0 C 12.640625 0 13.898438 -1.546875 15.992188 -6.835938 C 16.058594 -6.996094 16.089844 -7.15625 16.089844 -7.285156 C 16.089844 -7.800781 15.703125 -8.15625 15.28125 -8.15625 C 14.960938 -8.15625 14.636719 -7.964844 14.445312 -7.511719 Z M 14.445312 -7.511719 "/></g></g></g><g fill="#51d289" fill-opacity="1"><g transform="translate(76.04899, 51.265326)"><g><path d="M 10.125 -22.890625 C 4.449219 -22.890625 0.773438 -19.378906 0.773438 -14.929688 C 0.773438 -14.027344 1.226562 -13.378906 1.835938 -13.378906 C 2.484375 -13.378906 2.933594 -13.992188 2.933594 -14.929688 C 2.933594 -18.378906 5.546875 -20.859375 10.125 -20.859375 C 13.960938 -20.859375 16.476562 -18.507812 16.476562 -14.800781 C 16.476562 -10.996094 14.089844 -8.480469 10.671875 -8.480469 C 9.769531 -8.480469 8.769531 -8.640625 7.964844 -8.898438 C 8.15625 -10.511719 8.320312 -12.1875 8.320312 -13.929688 C 8.320312 -15.605469 7.996094 -18.152344 6.640625 -18.152344 C 6.0625 -18.152344 5.609375 -17.699219 5.609375 -17.054688 C 5.609375 -16.507812 6.0625 -15.734375 6.0625 -13.929688 C 6.0625 -9.316406 4.644531 -4.128906 4.644531 -0.933594 C 4.644531 -0.226562 5.09375 0.226562 5.738281 0.226562 C 6.417969 0.226562 6.898438 -0.257812 6.898438 -0.96875 C 6.898438 -2.515625 7.285156 -4.578125 7.671875 -6.964844 C 8.609375 -6.640625 9.671875 -6.449219 10.800781 -6.449219 C 15.152344 -6.449219 18.734375 -10.027344 18.734375 -14.800781 C 18.734375 -19.636719 15.28125 -22.890625 10.125 -22.890625 Z M 10.125 -22.890625 "/></g></g></g><g fill="#51d289" fill-opacity="1"><g transform="translate(94.87619, 51.265326)"><g><path d="M 9.996094 -7.511719 C 9.253906 -5.546875 7.449219 -2.03125 5.738281 -2.03125 C 4.480469 -2.03125 3.417969 -3.675781 3.191406 -6.898438 C 7.542969 -11.574219 9.253906 -15.574219 9.253906 -19.152344 C 9.253906 -21.375 8.125 -22.667969 6.511719 -22.667969 C 2.871094 -22.667969 1 -17.699219 1 -8.351562 C 1 -2.707031 2.964844 -0.03125 5.738281 -0.03125 C 7.738281 -0.03125 9.640625 -1.933594 11.542969 -6.835938 C 11.605469 -6.996094 11.640625 -7.15625 11.640625 -7.285156 C 11.640625 -7.835938 11.253906 -8.222656 10.832031 -8.222656 C 10.511719 -8.222656 10.1875 -7.996094 9.996094 -7.511719 Z M 6.222656 -20.667969 C 6.769531 -20.667969 7.125 -20.25 7.125 -19.152344 C 7.125 -16.28125 5.707031 -12.960938 3.128906 -9.671875 C 3.289062 -16.058594 4.546875 -20.667969 6.222656 -20.667969 Z M 6.222656 -20.667969 "/></g></g></g><g fill="#51d289" fill-opacity="1"><g transform="translate(103.80622, 51.265326)"><g><path d="M 15.894531 -7.511719 C 14.347656 -3.675781 13.316406 -1.871094 12.476562 -1.871094 C 11.800781 -1.871094 11.285156 -2.417969 11.285156 -4.289062 C 11.285156 -7.449219 11.734375 -11.21875 11.734375 -11.898438 C 11.734375 -12.574219 11.285156 -12.992188 10.738281 -12.992188 C 10.1875 -12.992188 9.769531 -12.574219 9.542969 -11.929688 C 8.707031 -12.542969 7.671875 -12.832031 6.835938 -12.832031 C 3.804688 -12.832031 0.773438 -9.769531 0.773438 -5.289062 C 0.773438 -1.835938 2.707031 0.128906 5.191406 0.128906 C 6.640625 0.128906 8.09375 -0.546875 9.382812 -2.515625 C 9.867188 -0.742188 10.898438 0.128906 12.347656 0.128906 C 14.21875 0.128906 15.667969 -2 17.441406 -6.835938 C 17.507812 -6.996094 17.539062 -7.15625 17.539062 -7.285156 C 17.539062 -7.800781 17.152344 -8.15625 16.734375 -8.15625 C 16.410156 -8.15625 16.089844 -7.964844 15.894531 -7.511719 Z M 5.511719 -1.871094 C 4 -1.871094 2.902344 -2.964844 2.902344 -5.382812 C 2.902344 -8.738281 5.0625 -10.929688 7.222656 -10.929688 C 8.15625 -10.929688 9.09375 -10.414062 9.382812 -9.964844 C 9.445312 -4.902344 7.769531 -1.871094 5.511719 -1.871094 Z M 5.511719 -1.871094 "/></g></g></g><g fill="#51d289" fill-opacity="1"><g transform="translate(118.635863, 51.265326)"><g><path d="M 14.445312 -7.511719 C 12.800781 -3.578125 11.960938 -2 11.125 -2 C 10.640625 -2 10.316406 -2.320312 10.316406 -3.09375 C 10.316406 -5.160156 10.832031 -8.320312 10.832031 -9.832031 C 10.832031 -11.605469 9.640625 -12.800781 7.867188 -12.800781 C 6.191406 -12.800781 4.609375 -11.832031 3.386719 -9.996094 C 3.449219 -10.671875 3.515625 -11.285156 3.515625 -11.703125 C 3.515625 -12.414062 3.03125 -12.769531 2.515625 -12.769531 C 2 -12.769531 1.449219 -12.382812 1.386719 -11.671875 C 1.160156 -9.125 0.804688 -3.578125 0.804688 -1.03125 C 0.804688 -0.324219 1.320312 0.03125 1.835938 0.03125 C 2.386719 0.03125 2.933594 -0.324219 2.933594 -1.03125 C 2.933594 -2.160156 2.964844 -3.386719 3.03125 -4.644531 C 3.449219 -8.222656 5.609375 -10.832031 7.351562 -10.832031 C 8.222656 -10.832031 8.707031 -10.316406 8.707031 -9.316406 C 8.707031 -8.222656 8.191406 -5.289062 8.191406 -3.289062 C 8.191406 -1.0625 9.253906 0 10.800781 0 C 12.640625 0 13.898438 -1.546875 15.992188 -6.835938 C 16.058594 -6.996094 16.089844 -7.15625 16.089844 -7.285156 C 16.089844 -7.800781 15.703125 -8.15625 15.28125 -8.15625 C 14.960938 -8.15625 14.636719 -7.964844 14.445312 -7.511719 Z M 14.445312 -7.511719 "/></g></g></g><g fill="#51d289" fill-opacity="1"><g transform="translate(132.014783, 51.265326)"><g><path d="M 14.445312 -7.511719 C 12.800781 -3.578125 11.960938 -2 11.125 -2 C 10.640625 -2 10.316406 -2.320312 10.316406 -3.09375 C 10.316406 -5.160156 10.832031 -8.320312 10.832031 -9.832031 C 10.832031 -11.605469 9.640625 -12.800781 7.867188 -12.800781 C 6.191406 -12.800781 4.609375 -11.832031 3.386719 -9.996094 C 3.449219 -10.671875 3.515625 -11.285156 3.515625 -11.703125 C 3.515625 -12.414062 3.03125 -12.769531 2.515625 -12.769531 C 2 -12.769531 1.449219 -12.382812 1.386719 -11.671875 C 1.160156 -9.125 0.804688 -3.578125 0.804688 -1.03125 C 0.804688 -0.324219 1.320312 0.03125 1.835938 0.03125 C 2.386719 0.03125 2.933594 -0.324219 2.933594 -1.03125 C 2.933594 -2.160156 2.964844 -3.386719 3.03125 -4.644531 C 3.449219 -8.222656 5.609375 -10.832031 7.351562 -10.832031 C 8.222656 -10.832031 8.707031 -10.316406 8.707031 -9.316406 C 8.707031 -8.222656 8.191406 -5.289062 8.191406 -3.289062 C 8.191406 -1.0625 9.253906 0 10.800781 0 C 12.640625 0 13.898438 -1.546875 15.992188 -6.835938 C 16.058594 -6.996094 16.089844 -7.15625 16.089844 -7.285156 C 16.089844 -7.800781 15.703125 -8.15625 15.28125 -8.15625 C 14.960938 -8.15625 14.636719 -7.964844 14.445312 -7.511719 Z M 14.445312 -7.511719 "/></g></g></g><path fill="#ffffff" d="M 13.703125 45.757812 C 14.128906 45.804688 14.457031 45.984375 14.84375 46.125 C 15.230469 46.269531 15.667969 46.394531 16.28125 46.398438 C 16.328125 46.398438 16.375 46.394531 16.421875 46.394531 C 16.847656 46.386719 17.386719 46.128906 17.792969 45.691406 C 18.203125 45.253906 18.488281 44.660156 18.484375 44 C 18.484375 43.617188 18.394531 43.207031 18.164062 42.769531 C 17.960938 42.382812 17.648438 42.070312 17.265625 41.816406 C 16.882812 41.558594 16.429688 41.363281 15.96875 41.222656 C 15.1875 40.980469 14.367188 40.941406 13.882812 40.910156 C 13.542969 40.925781 13.003906 40.925781 12.382812 41.054688 C 11.710938 41.195312 10.976562 41.4375 10.402344 41.824219 C 10.015625 42.078125 9.707031 42.390625 9.503906 42.777344 C 9.292969 43.175781 9.210938 43.535156 9.210938 43.863281 C 9.210938 44.492188 9.519531 45.042969 9.980469 45.457031 C 10.4375 45.871094 11.042969 46.117188 11.5 46.125 C 11.585938 46.128906 11.667969 46.128906 11.742188 46.128906 C 12.171875 46.128906 12.429688 46.089844 12.621094 46.039062 C 12.8125 45.992188 12.949219 45.929688 13.148438 45.859375 C 13.28125 45.816406 13.4375 45.773438 13.621094 45.757812 L 13.664062 45.753906 Z M 14.542969 46.949219 C 14.140625 46.792969 13.847656 46.660156 13.664062 46.632812 C 13.574219 46.644531 13.503906 46.664062 13.421875 46.691406 C 13.328125 46.722656 13.21875 46.769531 13.074219 46.816406 C 12.785156 46.917969 12.382812 47.007812 11.742188 47.007812 C 11.65625 47.007812 11.566406 47.003906 11.472656 47.003906 C 10.757812 46.976562 10.007812 46.648438 9.40625 46.113281 C 8.804688 45.574219 8.34375 44.792969 8.34375 43.863281 C 8.34375 43.382812 8.46875 42.875 8.738281 42.367188 C 9.023438 41.824219 9.449219 41.40625 9.925781 41.089844 C 10.402344 40.773438 10.929688 40.554688 11.445312 40.394531 C 12.113281 40.1875 12.765625 40.085938 13.269531 40.03125 C 13.269531 40.03125 14.242188 39.996094 14.285156 40.011719 C 14.617188 40.042969 15.023438 40.097656 15.460938 40.191406 C 16.199219 40.347656 17.027344 40.609375 17.742188 41.082031 C 18.21875 41.398438 18.644531 41.816406 18.929688 42.359375 L 18.546875 42.566406 L 18.929688 42.359375 C 19.222656 42.914062 19.355469 43.472656 19.355469 44 C 19.351562 44.914062 18.964844 45.71875 18.421875 46.296875 C 17.875 46.871094 17.171875 47.242188 16.449219 47.269531 C 16.394531 47.273438 16.335938 47.273438 16.28125 47.273438 C 16.277344 47.273438 16.277344 47.273438 16.273438 47.273438 C 15.539062 47.273438 14.976562 47.109375 14.542969 46.949219 " fill-opacity="1" fill-rule="nonzero"/><path fill="#ffffff" d="M 10.761719 42.550781 C 10.761719 42.550781 9.765625 43.359375 10.339844 44.347656 C 10.910156 45.339844 12.316406 44.480469 11.484375 43.609375 C 10.652344 42.738281 10.761719 42.550781 10.761719 42.550781 " fill-opacity="1" fill-rule="nonzero"/><path fill="#ffffff" d="M 16.570312 42.851562 C 16.570312 42.851562 17.566406 43.660156 16.996094 44.648438 C 16.421875 45.640625 15.019531 44.78125 15.851562 43.910156 C 16.679688 43.039062 16.570312 42.851562 16.570312 42.851562 " fill-opacity="1" fill-rule="nonzero"/><g clip-path="url(#3c048ef420)"><path fill="#ffffff" d="M 13.050781 30.558594 C 13.050781 30.558594 13.460938 28.765625 16.925781 29.011719 C 20.394531 29.261719 21.121094 28.738281 22.300781 27.160156 C 23.644531 25.359375 25.429688 23.511719 27.46875 22.523438 C 27.46875 22.523438 27.671875 24.070312 29.234375 26.726562 C 30.800781 29.382812 30.867188 34.453125 27.398438 34.515625 C 27.398438 34.515625 28.761719 36.984375 28.214844 39.148438 C 28.214844 39.148438 27.738281 35.8125 25.632812 34.144531 C 25.632812 34.144531 21.210938 30.621094 25.902344 26.851562 C 25.902344 26.851562 24.136719 29.261719 24.679688 30.804688 C 25.222656 32.351562 26.542969 33.171875 27.808594 32.722656 C 29.371094 32.164062 29.507812 30.0625 28.964844 28.148438 C 28.636719 26.992188 27.171875 25.414062 26.898438 23.5625 C 26.898438 23.5625 24.578125 25.410156 23.148438 27.757812 C 21.632812 30.246094 20.945312 30.214844 17.75 29.96875 C 14.554688 29.71875 13.527344 29.753906 13.050781 30.558594 " fill-opacity="1" fill-rule="nonzero"/></g><path fill="#ffffff" d="M 17.90625 46.25 C 17.90625 46.25 21.261719 46.042969 22.890625 41.839844 C 22.890625 41.839844 21.714844 44.066406 18.902344 45.21875 L 17.90625 46.25 " fill-opacity="1" fill-rule="nonzero"/><g clip-path="url(#3b11623758)"><path fill="#ffffff" d="M 29.703125 31.242188 C 29.703125 31.242188 32.496094 32.40625 34.761719 35.042969 C 34.761719 35.042969 32 32.859375 29.367188 32.449219 L 29.703125 31.242188 " fill-opacity="1" fill-rule="nonzero"/></g><g clip-path="url(#2ccab9fa2e)"><path fill="#ffffff" d="M 18.804688 49.21875 C 18.804688 49.21875 19.117188 50.933594 21.117188 52.058594 C 21.117188 52.058594 19.253906 51.824219 17.667969 49.144531 L 18.804688 49.21875 " fill-opacity="1" fill-rule="nonzero"/></g><path fill="#ffffff" d="M 11.28125 26.292969 C 8.847656 25.246094 5.84375 24.871094 5.164062 24.316406 C 5.164062 24.316406 5.230469 25.121094 5.09375 27.46875 C 4.960938 29.8125 4.890625 35.210938 10.300781 35.097656 C 8.097656 39.472656 9.511719 42.113281 9.511719 42.113281 L 10.519531 41.605469 C 9.695312 39.957031 10.050781 37.300781 10.683594 35.738281 C 10.84375 35.425781 11.15625 34.8125 11.269531 34.609375 C 11.402344 34.363281 11.574219 34.027344 11.675781 33.632812 C 12.339844 31.4375 12.058594 29.46875 8.359375 27.839844 C 8.359375 27.839844 10.261719 29.136719 10.738281 30.683594 C 11.214844 32.226562 10.671875 32.96875 10.195312 33.523438 C 9.71875 34.082031 4.765625 34.535156 6.042969 25.433594 C 6.042969 25.433594 7.417969 25.867188 8.804688 26.222656 C 10.867188 26.746094 13.207031 28.320312 13.75 29.742188 L 14.886719 29.199219 C 14.886719 29.199219 13.269531 27.148438 11.28125 26.292969 " fill-opacity="1" fill-rule="nonzero"/><path fill="#ffffff" d="M 21.199219 36.667969 C 21.199219 37.140625 20.820312 37.523438 20.355469 37.523438 C 19.886719 37.523438 19.507812 37.140625 19.507812 36.667969 C 19.507812 36.195312 19.886719 35.816406 20.355469 35.816406 C 20.820312 35.816406 21.199219 36.195312 21.199219 36.667969 " fill-opacity="1" fill-rule="nonzero"/><path fill="#ffffff" d="M 12.09375 36.0625 C 12.09375 36.433594 11.882812 36.734375 11.628906 36.734375 C 11.371094 36.734375 11.164062 36.433594 11.164062 36.0625 C 11.164062 35.691406 11.371094 35.394531 11.628906 35.394531 C 11.882812 35.394531 12.09375 35.691406 12.09375 36.0625 " fill-opacity="1" fill-rule="nonzero"/><path fill="#ffffff" d="M 19.171875 35.433594 C 19.171875 35.433594 19.527344 34.914062 20.46875 34.921875 C 21.496094 34.933594 21.988281 35.777344 22.007812 36.082031 C 22.007812 36.082031 22.039062 35.246094 21.371094 34.773438 C 20.636719 34.261719 19.453125 34.660156 19.171875 35.433594 " fill-opacity="1" fill-rule="nonzero"/><path fill="#ffffff" d="M 10.695312 35.054688 C 10.695312 35.054688 10.925781 34.574219 11.53125 34.582031 C 12.195312 34.589844 12.515625 35.371094 12.527344 35.652344 C 12.527344 35.652344 12.546875 34.878906 12.113281 34.445312 C 11.640625 33.972656 10.875 34.339844 10.695312 35.054688 " fill-opacity="1" fill-rule="nonzero"/><path fill="#ffffff" d="M 12.9375 46.304688 L 11.582031 46.46875 C 12.28125 47.371094 16.78125 52.476562 25.289062 46.746094 C 25.289062 46.746094 17.527344 51.546875 12.9375 46.304688 " fill-opacity="1" fill-rule="nonzero"/><path fill="#ffffff" d="M 12.046875 39.519531 C 12.046875 39.519531 14.394531 39.015625 16.839844 39.972656 C 16.839844 39.972656 15.140625 38.3125 12.046875 39.519531 " fill-opacity="1" fill-rule="nonzero"/><path fill="#ffffff" d="M 12.863281 38.53125 C 12.863281 38.53125 15.207031 38.027344 17.652344 38.984375 C 17.652344 38.984375 15.957031 37.320312 12.863281 38.53125 " fill-opacity="1" fill-rule="nonzero"/></svg>