<svg xmlns="http://www.w3.org/2000/svg" xmlns:xlink="http://www.w3.org/1999/xlink" width="40" zoomAndPan="magnify" viewBox="0 0 30 30.000001" height="40" preserveAspectRatio="xMidYMid meet" version="1.0"><defs><clipPath id="0f50b532ce"><path d="M 7.210938 2.273438 L 22.453125 2.273438 L 22.453125 26.949219 L 7.210938 26.949219 Z M 7.210938 2.273438 " clip-rule="nonzero"/></clipPath></defs><g clip-path="url(#0f50b532ce)"><path fill="#51d289" d="M 11.355469 10.234375 C 11.355469 8.9375 12.507812 8.023438 14.351562 7.816406 L 14.351562 12.445312 C 12.605469 11.972656 11.355469 11.382812 11.355469 10.234375 Z M 19.183594 18.722656 C 19.183594 19.757812 18.320312 20.847656 16.1875 21.113281 L 16.1875 16.488281 C 17.886719 16.941406 19.183594 17.527344 19.183594 18.722656 Z M 13.925781 26.949219 L 16.1875 26.949219 L 16.1875 24.390625 C 20.425781 24.023438 22.320312 21.464844 22.320312 18.5625 C 22.320312 14.753906 19.128906 13.644531 16.1875 12.875 L 16.1875 7.957031 C 17.570312 8.242188 18.929688 8.898438 20.003906 9.976562 L 21.867188 7.503906 C 20.398438 6.082031 18.476562 5.171875 16.1875 4.917969 L 16.1875 2.273438 L 13.925781 2.273438 L 13.925781 4.890625 C 10.28125 5.203125 7.960938 7.503906 7.960938 10.402344 C 7.960938 14.097656 11.015625 15.152344 13.925781 15.890625 L 13.925781 21.40625 C 11.894531 21.09375 10.253906 20.015625 9.207031 18.847656 L 7.339844 21.4375 C 8.839844 23 11.015625 24.164062 13.925781 24.390625 L 13.925781 26.949219 " fill-opacity="1" fill-rule="nonzero"/></g></svg>