<svg xmlns="http://www.w3.org/2000/svg" xmlns:xlink="http://www.w3.org/1999/xlink" width="40" zoomAndPan="magnify" viewBox="0 0 30 30.000001" height="40" preserveAspectRatio="xMidYMid meet" version="1.0"><defs><clipPath id="ab1053ba5c"><path d="M 6.78125 1.601562 L 23.476562 1.601562 L 23.476562 27.730469 L 6.78125 27.730469 Z M 6.78125 1.601562 " clip-rule="nonzero"/></clipPath></defs><g clip-path="url(#ab1053ba5c)"><path fill="#bc1823" d="M 11.324219 10.03125 C 11.324219 8.65625 12.585938 7.6875 14.601562 7.472656 L 14.601562 12.371094 C 12.691406 11.867188 11.324219 11.246094 11.324219 10.03125 Z M 19.890625 19.015625 C 19.890625 20.113281 18.945312 21.269531 16.613281 21.550781 L 16.613281 16.648438 C 18.472656 17.128906 19.890625 17.75 19.890625 19.015625 Z M 14.140625 27.730469 L 16.613281 27.730469 L 16.613281 25.019531 C 21.253906 24.628906 23.328125 21.921875 23.328125 18.847656 C 23.328125 14.816406 19.832031 13.640625 16.613281 12.828125 L 16.613281 7.621094 C 18.128906 7.921875 19.613281 8.613281 20.789062 9.757812 L 22.832031 7.140625 C 21.222656 5.632812 19.121094 4.671875 16.613281 4.398438 L 16.613281 1.601562 L 14.140625 1.601562 L 14.140625 4.371094 C 10.148438 4.699219 7.609375 7.140625 7.609375 10.207031 C 7.609375 14.121094 10.953125 15.238281 14.140625 16.019531 L 14.140625 21.859375 C 11.914062 21.527344 10.117188 20.382812 8.972656 19.148438 L 6.929688 21.890625 C 8.570312 23.542969 10.953125 24.777344 14.140625 25.019531 L 14.140625 27.730469 " fill-opacity="1" fill-rule="nonzero"/></g></svg>