<svg xmlns="http://www.w3.org/2000/svg" xmlns:xlink="http://www.w3.org/1999/xlink" width="40" zoomAndPan="magnify" viewBox="0 0 30 30.000001" height="40" preserveAspectRatio="xMidYMid meet" version="1.0"><defs><clipPath id="d825d479b8"><path d="M 7 9 L 23 9 L 23 28.414062 L 7 28.414062 Z M 7 9 " clip-rule="nonzero"/></clipPath><clipPath id="fd0cdf4352"><path d="M 5.167969 5 L 24.761719 5 L 24.761719 9 L 5.167969 9 Z M 5.167969 5 " clip-rule="nonzero"/></clipPath></defs><g clip-path="url(#d825d479b8)"><path fill="#51d289" d="M 9.574219 28.238281 L 20.4375 28.238281 C 21.195312 28.238281 21.832031 27.636719 21.878906 26.867188 L 22.90625 9.828125 L 7.105469 9.828125 L 8.132812 26.867188 C 8.183594 27.636719 8.816406 28.238281 9.574219 28.238281 Z M 18.609375 13.679688 C 18.621094 13.410156 18.832031 13.183594 19.109375 13.203125 C 19.371094 13.214844 19.582031 13.449219 19.570312 13.710938 L 19.1875 24.390625 C 19.179688 24.652344 18.964844 24.867188 18.714844 24.867188 C 18.707031 24.867188 18.699219 24.867188 18.699219 24.867188 C 18.429688 24.855469 18.226562 24.621094 18.234375 24.359375 Z M 14.527344 13.691406 C 14.527344 13.429688 14.738281 13.203125 15.007812 13.203125 C 15.277344 13.203125 15.488281 13.429688 15.488281 13.691406 L 15.488281 24.378906 C 15.488281 24.640625 15.277344 24.867188 15.007812 24.867188 C 14.738281 24.867188 14.527344 24.640625 14.527344 24.378906 Z M 10.902344 13.203125 C 11.160156 13.195312 11.390625 13.410156 11.402344 13.679688 L 11.777344 24.359375 C 11.785156 24.621094 11.585938 24.855469 11.316406 24.867188 C 11.316406 24.867188 11.304688 24.867188 11.296875 24.867188 C 11.046875 24.867188 10.835938 24.652344 10.824219 24.390625 L 10.441406 13.710938 C 10.429688 13.449219 10.644531 13.214844 10.902344 13.203125 Z M 10.902344 13.203125 " fill-opacity="1" fill-rule="nonzero"/></g><g clip-path="url(#fd0cdf4352)"><path fill="#51d289" d="M 24.820312 6.804688 C 24.820312 6.007812 24.175781 5.347656 23.378906 5.347656 L 6.632812 5.347656 C 5.835938 5.347656 5.191406 6.007812 5.191406 6.804688 L 5.191406 8.855469 L 24.820312 8.855469 Z M 24.820312 6.804688 " fill-opacity="1" fill-rule="nonzero"/></g><path fill="#51d289" d="M 9.699219 4.375 L 10.660156 4.375 C 10.890625 3.023438 12.066406 1.980469 13.46875 1.980469 L 16.542969 1.980469 C 17.949219 1.980469 19.121094 3.023438 19.351562 4.375 L 20.320312 4.375 C 20.082031 2.476562 18.476562 1.007812 16.542969 1.007812 L 13.46875 1.007812 C 11.535156 1.007812 9.929688 2.476562 9.699219 4.375 Z M 9.699219 4.375 " fill-opacity="1" fill-rule="nonzero"/></svg>